<?xml version="1.0" encoding="utf-8"?>
<!-- Generator: Adobe Illustrator 19.2.1, SVG Export Plug-In . SVG Version: 6.00 Build 0)  -->
<svg version="1.1" id="Layer_1" xmlns="http://www.w3.org/2000/svg" xmlns:xlink="http://www.w3.org/1999/xlink" x="0px" y="0px"
	 viewBox="0 0 31.2 31.2" style="enable-background:new 0 0 31.2 31.2;" xml:space="preserve">
<style type="text/css">
	.st0{fill:#F9F7F4;}
	.st1{fill-rule:evenodd;clip-rule:evenodd;fill:#F9F7F4;}
</style>
<g>
	<path class="st0" d="M18.4,15.5c0,1.6-1.3,2.9-2.9,2.9c-1.6,0-2.9-1.3-2.9-2.9c0-1.6,1.3-2.9,2.9-2.9
		C17.1,12.7,18.4,13.9,18.4,15.5z"/>
	<path class="st1" d="M21.2,10.9c0-0.6-0.5-1-1-1c-0.6,0-1,0.5-1,1c0,0.6,0.5,1,1,1C20.7,12,21.2,11.5,21.2,10.9z M20,15.5
		c0-2.5-2-4.5-4.5-4.5c-2.5,0-4.5,2-4.5,4.5c0,2.5,2,4.4,4.5,4.4C18,20,20,18,20,15.5z M22.6,12c0,0.9,0.1,1.2,0.1,3.5
		c0,2.3,0,2.6-0.1,3.5c0,0.5-0.1,1.1-0.3,1.6c-0.3,0.8-0.9,1.4-1.6,1.6c-0.5,0.2-1.1,0.3-1.6,0.3c-0.9,0-1.2,0.1-3.5,0.1
		c-2.3,0-2.6,0-3.5-0.1c-0.5,0-1.1-0.1-1.6-0.3C9.6,22,9,21.4,8.7,20.7c-0.2-0.5-0.3-1.1-0.3-1.6c0-0.9-0.1-1.2-0.1-3.5
		c0-2.3,0-2.6,0.1-3.5c0-0.5,0.1-1.1,0.3-1.6C9,9.7,9.6,9.1,10.4,8.8c0.5-0.2,1.1-0.3,1.6-0.3c0.9,0,1.2,0,3.5,0c2.3,0,2.6,0,3.5,0
		c0.5,0,1.1,0.1,1.6,0.3c0.8,0.3,1.4,0.9,1.6,1.6C22.5,10.9,22.6,11.5,22.6,12z"/>
	<path class="st1" d="M24.2,15.6c0-2.4,0-2.7,0-3.6c0-0.7-0.2-1.4-0.4-2.1c-0.5-1.2-1.4-2.1-2.5-2.6c-0.7-0.2-1.4-0.4-2.1-0.4
		c-0.9,0-1.2,0-3.6,0s-2.7,0-3.6,0c-0.7,0-1.4,0.2-2.1,0.4C8.6,7.7,7.7,8.7,7.3,9.9C7,10.5,6.9,11.2,6.9,12c0,0.9,0,1.2,0,3.6
		s0,2.7,0,3.6c0,0.7,0.2,1.4,0.4,2.1c0.5,1.2,1.4,2.1,2.5,2.5c0.7,0.3,1.4,0.4,2.1,0.4c0.9,0,1.2,0.1,3.6,0.1s2.7,0,3.6-0.1
		c0.7,0,1.4-0.1,2.1-0.4c1.2-0.5,2.1-1.4,2.5-2.5c0.2-0.7,0.4-1.4,0.4-2.1C24.2,18.2,24.2,17.9,24.2,15.6z M31,15.5
		c0,8.6-6.9,15.5-15.5,15.5S0,24.1,0,15.5C0,6.9,6.9,0,15.5,0S31,6.9,31,15.5z"/>
</g>
</svg>
