<?xml version="1.0" encoding="utf-8"?>
<!-- Generator: Adobe Illustrator 19.2.1, SVG Export Plug-In . SVG Version: 6.00 Build 0)  -->
<svg version="1.1" id="Layer_1" xmlns="http://www.w3.org/2000/svg" xmlns:xlink="http://www.w3.org/1999/xlink" x="0px" y="0px"
	 viewBox="0 0 31.2 31.2" style="enable-background:new 0 0 31.2 31.2;" xml:space="preserve">
<style type="text/css">
	.st0{fill:#F9F7F4;}
</style>
<path class="st0" d="M15.5,0C6.9,0,0,6.9,0,15.5C0,24.1,6.9,31,15.5,31S31,24.1,31,15.5C31,6.9,24.1,0,15.5,0z M22.7,14.1
	c-1.4,0-2.8-0.4-3.9-1.2v5.7c0,1.4-0.6,2.7-1.6,3.7c-2,2-5.3,2-7.3-0.1c-1.1-1.1-1.6-2.7-1.4-4.3c0.4-2.8,3-4.8,5.8-4.4v2.9
	c-0.7-0.2-1.5-0.1-2.1,0.4c-1,0.8-1.2,2.3-0.5,3.3c0.4,0.6,1.1,0.9,1.9,0.9c1.3,0,2.4-1,2.4-2.4V7.4h2.8v0.4
	c0.2,1.7,1.4,3.1,3.1,3.5c0.3,0.1,0.5,0.1,0.8,0.1V14.1z"/>
</svg>
